<?xml version="1.0" encoding="UTF-8"?><svg id="Layer_1" xmlns="http://www.w3.org/2000/svg" viewBox="0 0 500.01 83.85"><g id="SKRYPTONE"><path d="M2.5,44.72l15.15-.95c.33,2.46,1,4.34,2,5.62,1.64,2.09,3.98,3.13,7.03,3.13,2.27,0,4.03-.53,5.26-1.6,1.23-1.07,1.85-2.3,1.85-3.71s-.59-2.53-1.76-3.59-3.89-2.05-8.16-2.99c-6.98-1.57-11.97-3.66-14.94-6.26-3-2.6-4.5-5.92-4.5-9.95,0-2.65.77-5.15,2.3-7.51,1.53-2.36,3.84-4.21,6.93-5.55,3.08-1.35,7.31-2.02,12.67-2.02,6.59,0,11.61,1.23,15.06,3.67,3.46,2.45,5.51,6.35,6.17,11.69l-15.01.88c-.4-2.32-1.24-4.01-2.51-5.06s-3.04-1.58-5.29-1.58c-1.85,0-3.25.39-4.18,1.18-.94.79-1.41,1.74-1.41,2.87,0,.82.39,1.56,1.16,2.21.75.68,2.53,1.31,5.34,1.9,6.96,1.5,11.95,3.02,14.96,4.55,3.01,1.54,5.2,3.44,6.57,5.71,1.37,2.27,2.06,4.82,2.06,7.63,0,3.3-.91,6.35-2.74,9.14-1.83,2.79-4.38,4.9-7.66,6.35s-7.42,2.16-12.41,2.16c-8.77,0-14.84-1.69-18.21-5.06s-5.29-7.66-5.73-12.87Z"/><path d="M57.34,10.24h15.93v19.48l16.68-19.48h21.18l-18.81,19.45,19.65,32.09h-19.61l-10.87-21.2-8.23,8.62v12.58h-15.93V10.24Z"/><path d="M117.46,61.77V10.24h26.54c4.92,0,8.68.42,11.29,1.27s4.7,2.41,6.29,4.69,2.39,5.07,2.39,8.35c0,2.86-.61,5.33-1.83,7.4s-2.9,3.76-5.03,5.04c-1.36.82-3.22,1.5-5.59,2.04,1.9.63,3.28,1.27,4.15,1.9.59.42,1.43,1.33,2.55,2.71s1.86,2.45,2.23,3.2l7.71,14.93h-18l-8.51-15.75c-1.08-2.04-2.04-3.36-2.88-3.97-1.15-.8-2.45-1.2-3.9-1.2h-1.41v20.92h-16ZM133.45,31.12h6.71c.73,0,2.13-.23,4.22-.7,1.05-.21,1.92-.75,2.58-1.62.67-.87,1-1.86,1-2.99,0-1.66-.53-2.94-1.58-3.83-1.05-.89-3.04-1.34-5.94-1.34h-7v10.48Z"/><path d="M164.95,10.24h17.69l10.38,17.39,10.41-17.39h17.59l-20.04,29.95v21.59h-15.96v-21.59l-20.07-29.95Z"/><path d="M280.17,10.24h48.41v12.73h-16.24v38.81h-15.93V22.96h-16.24v-12.73Z"/><path d="M331.33,36.04c0-8.41,2.34-14.96,7.03-19.65,4.69-4.69,11.21-7.03,19.58-7.03s15.19,2.3,19.83,6.91,6.96,11.06,6.96,19.35c0,6.02-1.01,10.96-3.04,14.82-2.03,3.86-4.96,6.86-8.79,9s-8.61,3.22-14.33,3.22-10.62-.93-14.43-2.78c-3.81-1.85-6.9-4.78-9.26-8.79s-3.55-9.02-3.55-15.05ZM347.25,36.11c0,5.2.97,8.94,2.9,11.21,1.93,2.27,4.56,3.41,7.89,3.41s6.07-1.11,7.95-3.34c1.88-2.23,2.81-6.22,2.81-11.99,0-4.85-.98-8.4-2.94-10.63-1.96-2.24-4.61-3.36-7.96-3.36s-5.79,1.14-7.73,3.41c-1.95,2.27-2.92,6.04-2.92,11.29Z"/><path d="M393.41,10.24h14.87l19.41,28.51V10.24h15.01v51.54h-15.01l-19.3-28.3v28.3h-14.98V10.24Z"/><path d="M453.25,10.24h42.68v11h-26.72v8.19h24.79v10.51h-24.79v10.16h27.49v11.67h-43.45V10.24Z"/></g><path d="M241.35,54.86s-8.54-4.02-7.89,1.45c0,0-.07,2.58,1.22,6.6,1.88,5.84,6.67,14.42,6.67,14.42l-8.07-4.33-2.83,8.65-3.54-6.42c-8.3-13.28-6.39-27.23.75-32.16,4.86-3.36,11.35-1.98,14.02-1.24,0,0,7.06,2.33,11.16.21l-.07.03c4.2-1.5,7.55-5.78,7.55-10.49,0-6-4.86-10.86-10.86-10.86s-10.86,4.86-10.86,10.86c0,1.66.37,3.23,1.03,4.63l-13.44,3.49c.03.08.06.16.09.25l-.09-.25c-.89-2.54-1.37-5.28-1.37-8.13,0-13.61,11.03-24.64,24.64-24.64s24.64,11.03,24.64,24.64-11.03,24.64-24.64,24.64c-3.44,0-6.71-.7-9.68-1.97"/><circle cx="249.09" cy="31.25" r="3.99"/></svg>